<mxfile host="Electron" modified="2024-01-25T04:23:40.346Z" agent="Mozilla/5.0 (Windows NT 10.0; Win64; x64) AppleWebKit/537.36 (KHTML, like Gecko) draw.io/22.1.16 Chrome/120.0.6099.109 Electron/28.1.0 Safari/537.36" etag="_piR-FSrWwQ6JaMPHhgB" version="22.1.16" type="device">
  <diagram name="Page-1" id="U57ym69trIf38fKTCdPh">
    <mxGraphModel dx="810" dy="470" grid="1" gridSize="10" guides="1" tooltips="1" connect="1" arrows="1" fold="1" page="1" pageScale="1" pageWidth="850" pageHeight="1100" math="0" shadow="0">
      <root>
        <mxCell id="0" />
        <mxCell id="1" parent="0" />
        <mxCell id="qzQ125D7cpQ-J0SNVf1m-1" value="Actor" style="shape=umlActor;verticalLabelPosition=bottom;verticalAlign=top;html=1;outlineConnect=0;sketch=1;curveFitting=1;jiggle=2;labelBackgroundColor=none;fillColor=#BC6C25;strokeColor=#DDA15E;fontColor=#FEFAE0;" vertex="1" parent="1">
          <mxGeometry x="80" y="210" width="50" height="110" as="geometry" />
        </mxCell>
        <mxCell id="qzQ125D7cpQ-J0SNVf1m-13" value="users" style="shape=note;whiteSpace=wrap;html=1;backgroundOutline=1;fontColor=#FEFAE0;darkOpacity=0.05;fillColor=#BC6C25;strokeColor=none;fillStyle=solid;direction=west;gradientDirection=north;shadow=1;size=20;pointerEvents=1;sketch=1;curveFitting=1;jiggle=2;labelBackgroundColor=none;" vertex="1" parent="1">
          <mxGeometry x="67.5" y="320" width="75" height="30" as="geometry" />
        </mxCell>
        <mxCell id="qzQ125D7cpQ-J0SNVf1m-14" value="login" style="ellipse;whiteSpace=wrap;html=1;sketch=1;curveFitting=1;jiggle=2;labelBackgroundColor=none;fillColor=#BC6C25;strokeColor=#DDA15E;fontColor=#FEFAE0;" vertex="1" parent="1">
          <mxGeometry x="300" y="50" width="110" height="50" as="geometry" />
        </mxCell>
        <mxCell id="qzQ125D7cpQ-J0SNVf1m-15" value="" style="shape=waypoint;sketch=1;fillStyle=solid;size=6;pointerEvents=1;points=[];fillColor=none;resizable=0;rotatable=0;perimeter=centerPerimeter;snapToPoint=1;curveFitting=1;jiggle=2;labelBackgroundColor=none;strokeColor=#DDA15E;fontColor=#FEFAE0;" vertex="1" parent="1">
          <mxGeometry x="142.5" y="255" width="20" height="20" as="geometry" />
        </mxCell>
        <mxCell id="qzQ125D7cpQ-J0SNVf1m-16" value="regitester" style="ellipse;whiteSpace=wrap;html=1;sketch=1;curveFitting=1;jiggle=2;labelBackgroundColor=none;fillColor=#BC6C25;strokeColor=#DDA15E;fontColor=#FEFAE0;" vertex="1" parent="1">
          <mxGeometry x="300" y="120" width="110" height="50" as="geometry" />
        </mxCell>
        <mxCell id="qzQ125D7cpQ-J0SNVf1m-17" value="data foto" style="ellipse;whiteSpace=wrap;html=1;sketch=1;curveFitting=1;jiggle=2;labelBackgroundColor=none;fillColor=#BC6C25;strokeColor=#DDA15E;fontColor=#FEFAE0;" vertex="1" parent="1">
          <mxGeometry x="300" y="190" width="110" height="50" as="geometry" />
        </mxCell>
        <mxCell id="qzQ125D7cpQ-J0SNVf1m-18" value="tampilan galeri" style="ellipse;whiteSpace=wrap;html=1;sketch=1;curveFitting=1;jiggle=2;labelBackgroundColor=none;fillColor=#BC6C25;strokeColor=#DDA15E;fontColor=#FEFAE0;" vertex="1" parent="1">
          <mxGeometry x="298" y="258" width="115" height="50" as="geometry" />
        </mxCell>
        <mxCell id="qzQ125D7cpQ-J0SNVf1m-19" value="crud&lt;br&gt;(tambah/hapus)" style="ellipse;whiteSpace=wrap;html=1;sketch=1;curveFitting=1;jiggle=2;labelBackgroundColor=none;fillColor=#BC6C25;strokeColor=#DDA15E;fontColor=#FEFAE0;" vertex="1" parent="1">
          <mxGeometry x="300" y="330" width="115" height="50" as="geometry" />
        </mxCell>
        <mxCell id="qzQ125D7cpQ-J0SNVf1m-21" value="" style="endArrow=none;html=1;rounded=0;entryX=0;entryY=0.5;entryDx=0;entryDy=0;sketch=1;curveFitting=1;jiggle=2;labelBackgroundColor=none;strokeColor=#DDA15E;fontColor=default;" edge="1" parent="1" source="qzQ125D7cpQ-J0SNVf1m-15" target="qzQ125D7cpQ-J0SNVf1m-14">
          <mxGeometry width="50" height="50" relative="1" as="geometry">
            <mxPoint x="320" y="330" as="sourcePoint" />
            <mxPoint x="370" y="280" as="targetPoint" />
          </mxGeometry>
        </mxCell>
        <mxCell id="qzQ125D7cpQ-J0SNVf1m-22" value="" style="endArrow=none;html=1;rounded=0;exitX=0.757;exitY=0.724;exitDx=0;exitDy=0;exitPerimeter=0;entryX=0;entryY=0.5;entryDx=0;entryDy=0;sketch=1;curveFitting=1;jiggle=2;labelBackgroundColor=none;strokeColor=#DDA15E;fontColor=default;" edge="1" parent="1" source="qzQ125D7cpQ-J0SNVf1m-15" target="qzQ125D7cpQ-J0SNVf1m-16">
          <mxGeometry width="50" height="50" relative="1" as="geometry">
            <mxPoint x="320" y="330" as="sourcePoint" />
            <mxPoint x="290" y="180" as="targetPoint" />
          </mxGeometry>
        </mxCell>
        <mxCell id="qzQ125D7cpQ-J0SNVf1m-24" value="" style="endArrow=none;html=1;rounded=0;exitX=0.914;exitY=0.461;exitDx=0;exitDy=0;exitPerimeter=0;entryX=0;entryY=0.5;entryDx=0;entryDy=0;sketch=1;curveFitting=1;jiggle=2;labelBackgroundColor=none;strokeColor=#DDA15E;fontColor=default;" edge="1" parent="1" source="qzQ125D7cpQ-J0SNVf1m-15" target="qzQ125D7cpQ-J0SNVf1m-17">
          <mxGeometry width="50" height="50" relative="1" as="geometry">
            <mxPoint x="320" y="330" as="sourcePoint" />
            <mxPoint x="300" y="265" as="targetPoint" />
            <Array as="points" />
          </mxGeometry>
        </mxCell>
        <mxCell id="qzQ125D7cpQ-J0SNVf1m-25" value="" style="endArrow=none;html=1;rounded=0;exitX=0.375;exitY=0.376;exitDx=0;exitDy=0;exitPerimeter=0;entryX=0;entryY=0.5;entryDx=0;entryDy=0;sketch=1;curveFitting=1;jiggle=2;labelBackgroundColor=none;strokeColor=#DDA15E;fontColor=default;" edge="1" parent="1" source="qzQ125D7cpQ-J0SNVf1m-15" target="qzQ125D7cpQ-J0SNVf1m-18">
          <mxGeometry width="50" height="50" relative="1" as="geometry">
            <mxPoint x="160" y="270" as="sourcePoint" />
            <mxPoint x="370" y="280" as="targetPoint" />
          </mxGeometry>
        </mxCell>
        <mxCell id="qzQ125D7cpQ-J0SNVf1m-26" value="" style="endArrow=none;html=1;rounded=0;exitX=0.522;exitY=0.7;exitDx=0;exitDy=0;exitPerimeter=0;entryX=0.015;entryY=0.592;entryDx=0;entryDy=0;entryPerimeter=0;sketch=1;curveFitting=1;jiggle=2;labelBackgroundColor=none;strokeColor=#DDA15E;fontColor=default;" edge="1" parent="1" source="qzQ125D7cpQ-J0SNVf1m-15" target="qzQ125D7cpQ-J0SNVf1m-19">
          <mxGeometry width="50" height="50" relative="1" as="geometry">
            <mxPoint x="280" y="410" as="sourcePoint" />
            <mxPoint x="330" y="360" as="targetPoint" />
          </mxGeometry>
        </mxCell>
        <mxCell id="qzQ125D7cpQ-J0SNVf1m-27" value="logout" style="ellipse;whiteSpace=wrap;html=1;sketch=1;curveFitting=1;jiggle=2;labelBackgroundColor=none;fillColor=#BC6C25;strokeColor=#DDA15E;fontColor=#FEFAE0;" vertex="1" parent="1">
          <mxGeometry x="306" y="399" width="110" height="50" as="geometry" />
        </mxCell>
        <mxCell id="qzQ125D7cpQ-J0SNVf1m-28" value="" style="endArrow=none;html=1;rounded=0;entryX=0;entryY=0.5;entryDx=0;entryDy=0;sketch=1;curveFitting=1;jiggle=2;labelBackgroundColor=none;strokeColor=#DDA15E;fontColor=default;" edge="1" parent="1" source="qzQ125D7cpQ-J0SNVf1m-15" target="qzQ125D7cpQ-J0SNVf1m-27">
          <mxGeometry width="50" height="50" relative="1" as="geometry">
            <mxPoint x="340" y="300" as="sourcePoint" />
            <mxPoint x="390" y="250" as="targetPoint" />
          </mxGeometry>
        </mxCell>
      </root>
    </mxGraphModel>
  </diagram>
</mxfile>
